<mxfile host="app.diagrams.net" agent="Mozilla/5.0 (Windows NT 10.0; Win64; x64; rv:134.0) Gecko/20100101 Firefox/134.0" version="26.0.4">
  <diagram name="Page-1" id="C_5aRVevo_W9djFjDAp3">
    <mxGraphModel dx="3434" dy="1407" grid="1" gridSize="10" guides="1" tooltips="1" connect="1" arrows="1" fold="1" page="1" pageScale="1" pageWidth="827" pageHeight="1169" math="0" shadow="0">
      <root>
        <mxCell id="0" />
        <mxCell id="1" parent="0" />
        <mxCell id="n3XYFXiZFiqLa2j20COd-3" value="" style="edgeStyle=orthogonalEdgeStyle;rounded=0;orthogonalLoop=1;jettySize=auto;html=1;" edge="1" parent="1" source="n3XYFXiZFiqLa2j20COd-1" target="n3XYFXiZFiqLa2j20COd-2">
          <mxGeometry relative="1" as="geometry" />
        </mxCell>
        <mxCell id="n3XYFXiZFiqLa2j20COd-1" value="&lt;div&gt;Cosmic Survivor&lt;br&gt;&lt;/div&gt;" style="rounded=0;whiteSpace=wrap;html=1;" vertex="1" parent="1">
          <mxGeometry x="354" y="40" width="120" height="60" as="geometry" />
        </mxCell>
        <mxCell id="n3XYFXiZFiqLa2j20COd-5" value="" style="edgeStyle=orthogonalEdgeStyle;rounded=0;orthogonalLoop=1;jettySize=auto;html=1;" edge="1" parent="1" source="n3XYFXiZFiqLa2j20COd-2" target="n3XYFXiZFiqLa2j20COd-4">
          <mxGeometry relative="1" as="geometry" />
        </mxCell>
        <mxCell id="n3XYFXiZFiqLa2j20COd-7" value="" style="edgeStyle=orthogonalEdgeStyle;rounded=0;orthogonalLoop=1;jettySize=auto;html=1;" edge="1" parent="1" source="n3XYFXiZFiqLa2j20COd-2" target="n3XYFXiZFiqLa2j20COd-6">
          <mxGeometry relative="1" as="geometry" />
        </mxCell>
        <mxCell id="n3XYFXiZFiqLa2j20COd-19" style="edgeStyle=orthogonalEdgeStyle;rounded=0;orthogonalLoop=1;jettySize=auto;html=1;exitX=0.5;exitY=1;exitDx=0;exitDy=0;" edge="1" parent="1" source="n3XYFXiZFiqLa2j20COd-2">
          <mxGeometry relative="1" as="geometry">
            <mxPoint x="80" y="320" as="targetPoint" />
          </mxGeometry>
        </mxCell>
        <mxCell id="n3XYFXiZFiqLa2j20COd-25" style="edgeStyle=orthogonalEdgeStyle;rounded=0;orthogonalLoop=1;jettySize=auto;html=1;exitX=0.5;exitY=1;exitDx=0;exitDy=0;" edge="1" parent="1" source="n3XYFXiZFiqLa2j20COd-2">
          <mxGeometry relative="1" as="geometry">
            <mxPoint x="240" y="320" as="targetPoint" />
          </mxGeometry>
        </mxCell>
        <mxCell id="n3XYFXiZFiqLa2j20COd-29" style="edgeStyle=orthogonalEdgeStyle;rounded=0;orthogonalLoop=1;jettySize=auto;html=1;exitX=0.5;exitY=1;exitDx=0;exitDy=0;" edge="1" parent="1" source="n3XYFXiZFiqLa2j20COd-2" target="n3XYFXiZFiqLa2j20COd-30">
          <mxGeometry relative="1" as="geometry">
            <mxPoint x="414" y="320" as="targetPoint" />
          </mxGeometry>
        </mxCell>
        <mxCell id="n3XYFXiZFiqLa2j20COd-40" style="edgeStyle=orthogonalEdgeStyle;rounded=0;orthogonalLoop=1;jettySize=auto;html=1;exitX=0.5;exitY=1;exitDx=0;exitDy=0;" edge="1" parent="1" source="n3XYFXiZFiqLa2j20COd-2" target="n3XYFXiZFiqLa2j20COd-41">
          <mxGeometry relative="1" as="geometry">
            <mxPoint x="600" y="320" as="targetPoint" />
          </mxGeometry>
        </mxCell>
        <mxCell id="n3XYFXiZFiqLa2j20COd-44" style="edgeStyle=orthogonalEdgeStyle;rounded=0;orthogonalLoop=1;jettySize=auto;html=1;exitX=0.5;exitY=1;exitDx=0;exitDy=0;" edge="1" parent="1" source="n3XYFXiZFiqLa2j20COd-2" target="n3XYFXiZFiqLa2j20COd-45">
          <mxGeometry relative="1" as="geometry">
            <mxPoint x="760" y="320" as="targetPoint" />
          </mxGeometry>
        </mxCell>
        <mxCell id="n3XYFXiZFiqLa2j20COd-48" style="edgeStyle=orthogonalEdgeStyle;rounded=0;orthogonalLoop=1;jettySize=auto;html=1;exitX=0.5;exitY=1;exitDx=0;exitDy=0;" edge="1" parent="1" source="n3XYFXiZFiqLa2j20COd-2" target="n3XYFXiZFiqLa2j20COd-49">
          <mxGeometry relative="1" as="geometry">
            <mxPoint x="920" y="320" as="targetPoint" />
          </mxGeometry>
        </mxCell>
        <mxCell id="n3XYFXiZFiqLa2j20COd-2" value="Mechanics" style="rounded=0;whiteSpace=wrap;html=1;" vertex="1" parent="1">
          <mxGeometry x="354" y="180" width="120" height="60" as="geometry" />
        </mxCell>
        <mxCell id="n3XYFXiZFiqLa2j20COd-9" value="" style="edgeStyle=orthogonalEdgeStyle;rounded=0;orthogonalLoop=1;jettySize=auto;html=1;" edge="1" parent="1" source="n3XYFXiZFiqLa2j20COd-4" target="n3XYFXiZFiqLa2j20COd-8">
          <mxGeometry relative="1" as="geometry" />
        </mxCell>
        <mxCell id="n3XYFXiZFiqLa2j20COd-21" style="edgeStyle=orthogonalEdgeStyle;rounded=0;orthogonalLoop=1;jettySize=auto;html=1;exitX=0.5;exitY=1;exitDx=0;exitDy=0;" edge="1" parent="1" source="n3XYFXiZFiqLa2j20COd-4" target="n3XYFXiZFiqLa2j20COd-11">
          <mxGeometry relative="1" as="geometry" />
        </mxCell>
        <mxCell id="n3XYFXiZFiqLa2j20COd-4" value="Entities" style="rounded=0;whiteSpace=wrap;html=1;" vertex="1" parent="1">
          <mxGeometry x="-240" y="180" width="120" height="60" as="geometry" />
        </mxCell>
        <mxCell id="n3XYFXiZFiqLa2j20COd-90" style="edgeStyle=orthogonalEdgeStyle;rounded=0;orthogonalLoop=1;jettySize=auto;html=1;exitX=0.5;exitY=1;exitDx=0;exitDy=0;entryX=0;entryY=0.5;entryDx=0;entryDy=0;" edge="1" parent="1" source="n3XYFXiZFiqLa2j20COd-6" target="n3XYFXiZFiqLa2j20COd-89">
          <mxGeometry relative="1" as="geometry" />
        </mxCell>
        <mxCell id="n3XYFXiZFiqLa2j20COd-92" style="edgeStyle=orthogonalEdgeStyle;rounded=0;orthogonalLoop=1;jettySize=auto;html=1;exitX=0.5;exitY=1;exitDx=0;exitDy=0;entryX=0;entryY=0.5;entryDx=0;entryDy=0;" edge="1" parent="1" source="n3XYFXiZFiqLa2j20COd-6" target="n3XYFXiZFiqLa2j20COd-91">
          <mxGeometry relative="1" as="geometry" />
        </mxCell>
        <mxCell id="n3XYFXiZFiqLa2j20COd-6" value="&lt;div&gt;World&lt;/div&gt;" style="rounded=0;whiteSpace=wrap;html=1;" vertex="1" parent="1">
          <mxGeometry x="1050" y="180" width="120" height="60" as="geometry" />
        </mxCell>
        <mxCell id="n3XYFXiZFiqLa2j20COd-13" value="" style="edgeStyle=orthogonalEdgeStyle;rounded=0;orthogonalLoop=1;jettySize=auto;html=1;" edge="1" parent="1" source="n3XYFXiZFiqLa2j20COd-8" target="n3XYFXiZFiqLa2j20COd-12">
          <mxGeometry relative="1" as="geometry" />
        </mxCell>
        <mxCell id="n3XYFXiZFiqLa2j20COd-8" value="&lt;div&gt;Player&lt;/div&gt;" style="rounded=0;whiteSpace=wrap;html=1;" vertex="1" parent="1">
          <mxGeometry x="-360" y="320" width="120" height="60" as="geometry" />
        </mxCell>
        <mxCell id="n3XYFXiZFiqLa2j20COd-15" value="" style="edgeStyle=orthogonalEdgeStyle;rounded=0;orthogonalLoop=1;jettySize=auto;html=1;" edge="1" parent="1" source="n3XYFXiZFiqLa2j20COd-11" target="n3XYFXiZFiqLa2j20COd-14">
          <mxGeometry relative="1" as="geometry" />
        </mxCell>
        <mxCell id="n3XYFXiZFiqLa2j20COd-11" value="Enemies" style="rounded=0;whiteSpace=wrap;html=1;" vertex="1" parent="1">
          <mxGeometry x="-120" y="320" width="120" height="60" as="geometry" />
        </mxCell>
        <mxCell id="n3XYFXiZFiqLa2j20COd-12" value="The player is a sprite controlled by the user" style="rounded=0;whiteSpace=wrap;html=1;" vertex="1" parent="1">
          <mxGeometry x="-360" y="440" width="120" height="80" as="geometry" />
        </mxCell>
        <mxCell id="n3XYFXiZFiqLa2j20COd-14" value="Objects that slow the player down and add a challenging aspect to the game" style="rounded=0;whiteSpace=wrap;html=1;" vertex="1" parent="1">
          <mxGeometry x="-120" y="440" width="120" height="100" as="geometry" />
        </mxCell>
        <mxCell id="n3XYFXiZFiqLa2j20COd-24" value="" style="edgeStyle=orthogonalEdgeStyle;rounded=0;orthogonalLoop=1;jettySize=auto;html=1;" edge="1" parent="1" source="n3XYFXiZFiqLa2j20COd-22" target="n3XYFXiZFiqLa2j20COd-23">
          <mxGeometry relative="1" as="geometry" />
        </mxCell>
        <mxCell id="n3XYFXiZFiqLa2j20COd-22" value="Movement" style="rounded=0;whiteSpace=wrap;html=1;" vertex="1" parent="1">
          <mxGeometry x="20" y="320" width="120" height="60" as="geometry" />
        </mxCell>
        <mxCell id="n3XYFXiZFiqLa2j20COd-23" value="The player will move through the terrain in each level in order to progress" style="rounded=0;whiteSpace=wrap;html=1;" vertex="1" parent="1">
          <mxGeometry x="20" y="440" width="120" height="100" as="geometry" />
        </mxCell>
        <mxCell id="n3XYFXiZFiqLa2j20COd-28" value="" style="edgeStyle=orthogonalEdgeStyle;rounded=0;orthogonalLoop=1;jettySize=auto;html=1;" edge="1" parent="1" source="n3XYFXiZFiqLa2j20COd-26" target="n3XYFXiZFiqLa2j20COd-27">
          <mxGeometry relative="1" as="geometry" />
        </mxCell>
        <mxCell id="n3XYFXiZFiqLa2j20COd-26" value="Scoring" style="rounded=0;whiteSpace=wrap;html=1;" vertex="1" parent="1">
          <mxGeometry x="180" y="320" width="120" height="60" as="geometry" />
        </mxCell>
        <mxCell id="n3XYFXiZFiqLa2j20COd-27" value="The player will gain a set amount of score for each level they complete" style="rounded=0;whiteSpace=wrap;html=1;" vertex="1" parent="1">
          <mxGeometry x="180" y="440" width="120" height="100" as="geometry" />
        </mxCell>
        <mxCell id="n3XYFXiZFiqLa2j20COd-32" value="" style="edgeStyle=orthogonalEdgeStyle;rounded=0;orthogonalLoop=1;jettySize=auto;html=1;" edge="1" parent="1" source="n3XYFXiZFiqLa2j20COd-30" target="n3XYFXiZFiqLa2j20COd-31">
          <mxGeometry relative="1" as="geometry" />
        </mxCell>
        <mxCell id="n3XYFXiZFiqLa2j20COd-30" value="Weapons" style="rounded=0;whiteSpace=wrap;html=1;" vertex="1" parent="1">
          <mxGeometry x="354" y="320" width="120" height="60" as="geometry" />
        </mxCell>
        <mxCell id="n3XYFXiZFiqLa2j20COd-34" value="" style="edgeStyle=orthogonalEdgeStyle;rounded=0;orthogonalLoop=1;jettySize=auto;html=1;" edge="1" parent="1" source="n3XYFXiZFiqLa2j20COd-31" target="n3XYFXiZFiqLa2j20COd-33">
          <mxGeometry relative="1" as="geometry" />
        </mxCell>
        <mxCell id="n3XYFXiZFiqLa2j20COd-31" value="Plasma Grenades" style="rounded=0;whiteSpace=wrap;html=1;" vertex="1" parent="1">
          <mxGeometry x="354" y="440" width="120" height="60" as="geometry" />
        </mxCell>
        <mxCell id="n3XYFXiZFiqLa2j20COd-37" value="" style="edgeStyle=orthogonalEdgeStyle;rounded=0;orthogonalLoop=1;jettySize=auto;html=1;" edge="1" parent="1" source="n3XYFXiZFiqLa2j20COd-33" target="n3XYFXiZFiqLa2j20COd-36">
          <mxGeometry relative="1" as="geometry" />
        </mxCell>
        <mxCell id="n3XYFXiZFiqLa2j20COd-33" value="Can be thrown by the player or enemies to deal splash damage over an area" style="rounded=0;whiteSpace=wrap;html=1;" vertex="1" parent="1">
          <mxGeometry x="354" y="580" width="120" height="100" as="geometry" />
        </mxCell>
        <mxCell id="n3XYFXiZFiqLa2j20COd-39" value="" style="edgeStyle=orthogonalEdgeStyle;rounded=0;orthogonalLoop=1;jettySize=auto;html=1;" edge="1" parent="1" source="n3XYFXiZFiqLa2j20COd-36" target="n3XYFXiZFiqLa2j20COd-38">
          <mxGeometry relative="1" as="geometry" />
        </mxCell>
        <mxCell id="n3XYFXiZFiqLa2j20COd-36" value="Plasma Explosion" style="rounded=0;whiteSpace=wrap;html=1;" vertex="1" parent="1">
          <mxGeometry x="354" y="760" width="120" height="100" as="geometry" />
        </mxCell>
        <mxCell id="n3XYFXiZFiqLa2j20COd-38" value="Explodes radially outwards to deal splash damage" style="rounded=0;whiteSpace=wrap;html=1;" vertex="1" parent="1">
          <mxGeometry x="554" y="760" width="120" height="100" as="geometry" />
        </mxCell>
        <mxCell id="n3XYFXiZFiqLa2j20COd-43" value="" style="edgeStyle=orthogonalEdgeStyle;rounded=0;orthogonalLoop=1;jettySize=auto;html=1;" edge="1" parent="1" source="n3XYFXiZFiqLa2j20COd-41" target="n3XYFXiZFiqLa2j20COd-42">
          <mxGeometry relative="1" as="geometry" />
        </mxCell>
        <mxCell id="n3XYFXiZFiqLa2j20COd-41" value="Lasers" style="rounded=0;whiteSpace=wrap;html=1;" vertex="1" parent="1">
          <mxGeometry x="540" y="320" width="120" height="60" as="geometry" />
        </mxCell>
        <mxCell id="n3XYFXiZFiqLa2j20COd-42" value="Shot by the player and enemies to deal small damage" style="rounded=0;whiteSpace=wrap;html=1;" vertex="1" parent="1">
          <mxGeometry x="540" y="440" width="120" height="100" as="geometry" />
        </mxCell>
        <mxCell id="n3XYFXiZFiqLa2j20COd-47" value="" style="edgeStyle=orthogonalEdgeStyle;rounded=0;orthogonalLoop=1;jettySize=auto;html=1;" edge="1" parent="1" source="n3XYFXiZFiqLa2j20COd-45" target="n3XYFXiZFiqLa2j20COd-46">
          <mxGeometry relative="1" as="geometry" />
        </mxCell>
        <mxCell id="n3XYFXiZFiqLa2j20COd-45" value="Animation" style="rounded=0;whiteSpace=wrap;html=1;" vertex="1" parent="1">
          <mxGeometry x="707" y="320" width="120" height="60" as="geometry" />
        </mxCell>
        <mxCell id="n3XYFXiZFiqLa2j20COd-46" value="This utilises data structures to animate parts of the game" style="rounded=0;whiteSpace=wrap;html=1;" vertex="1" parent="1">
          <mxGeometry x="707" y="440" width="120" height="100" as="geometry" />
        </mxCell>
        <mxCell id="n3XYFXiZFiqLa2j20COd-54" style="edgeStyle=orthogonalEdgeStyle;rounded=0;orthogonalLoop=1;jettySize=auto;html=1;exitX=0.5;exitY=1;exitDx=0;exitDy=0;entryX=0;entryY=0.5;entryDx=0;entryDy=0;" edge="1" parent="1" source="n3XYFXiZFiqLa2j20COd-49" target="n3XYFXiZFiqLa2j20COd-56">
          <mxGeometry relative="1" as="geometry">
            <mxPoint x="930" y="480" as="targetPoint" />
          </mxGeometry>
        </mxCell>
        <mxCell id="n3XYFXiZFiqLa2j20COd-58" style="edgeStyle=orthogonalEdgeStyle;rounded=0;orthogonalLoop=1;jettySize=auto;html=1;exitX=0.5;exitY=1;exitDx=0;exitDy=0;entryX=0;entryY=0.5;entryDx=0;entryDy=0;" edge="1" parent="1" source="n3XYFXiZFiqLa2j20COd-49" target="n3XYFXiZFiqLa2j20COd-57">
          <mxGeometry relative="1" as="geometry" />
        </mxCell>
        <mxCell id="n3XYFXiZFiqLa2j20COd-60" style="edgeStyle=orthogonalEdgeStyle;rounded=0;orthogonalLoop=1;jettySize=auto;html=1;exitX=0.5;exitY=1;exitDx=0;exitDy=0;entryX=0;entryY=0.5;entryDx=0;entryDy=0;" edge="1" parent="1" source="n3XYFXiZFiqLa2j20COd-49" target="n3XYFXiZFiqLa2j20COd-59">
          <mxGeometry relative="1" as="geometry" />
        </mxCell>
        <mxCell id="n3XYFXiZFiqLa2j20COd-49" value="Refill boxes" style="rounded=0;whiteSpace=wrap;html=1;" vertex="1" parent="1">
          <mxGeometry x="870" y="320" width="120" height="60" as="geometry" />
        </mxCell>
        <mxCell id="n3XYFXiZFiqLa2j20COd-62" value="" style="edgeStyle=orthogonalEdgeStyle;rounded=0;orthogonalLoop=1;jettySize=auto;html=1;" edge="1" parent="1" source="n3XYFXiZFiqLa2j20COd-56" target="n3XYFXiZFiqLa2j20COd-61">
          <mxGeometry relative="1" as="geometry" />
        </mxCell>
        <mxCell id="n3XYFXiZFiqLa2j20COd-56" value="Medical" style="rounded=0;whiteSpace=wrap;html=1;" vertex="1" parent="1">
          <mxGeometry x="980" y="560" width="120" height="60" as="geometry" />
        </mxCell>
        <mxCell id="n3XYFXiZFiqLa2j20COd-64" value="" style="edgeStyle=orthogonalEdgeStyle;rounded=0;orthogonalLoop=1;jettySize=auto;html=1;" edge="1" parent="1" source="n3XYFXiZFiqLa2j20COd-57" target="n3XYFXiZFiqLa2j20COd-63">
          <mxGeometry relative="1" as="geometry" />
        </mxCell>
        <mxCell id="n3XYFXiZFiqLa2j20COd-57" value="Ammo" style="rounded=0;whiteSpace=wrap;html=1;" vertex="1" parent="1">
          <mxGeometry x="980" y="640" width="120" height="60" as="geometry" />
        </mxCell>
        <mxCell id="n3XYFXiZFiqLa2j20COd-66" value="" style="edgeStyle=orthogonalEdgeStyle;rounded=0;orthogonalLoop=1;jettySize=auto;html=1;" edge="1" parent="1" source="n3XYFXiZFiqLa2j20COd-59" target="n3XYFXiZFiqLa2j20COd-65">
          <mxGeometry relative="1" as="geometry" />
        </mxCell>
        <mxCell id="n3XYFXiZFiqLa2j20COd-59" value="Plasma Grenades" style="rounded=0;whiteSpace=wrap;html=1;" vertex="1" parent="1">
          <mxGeometry x="980" y="720" width="120" height="60" as="geometry" />
        </mxCell>
        <mxCell id="n3XYFXiZFiqLa2j20COd-61" value="Collision-based objects that will resore HP to the player when touched" style="rounded=0;whiteSpace=wrap;html=1;" vertex="1" parent="1">
          <mxGeometry x="1180" y="560" width="130" height="60" as="geometry" />
        </mxCell>
        <mxCell id="n3XYFXiZFiqLa2j20COd-63" value="Collision-based objects that restore ammo when touched" style="rounded=0;whiteSpace=wrap;html=1;" vertex="1" parent="1">
          <mxGeometry x="1180" y="640" width="130" height="60" as="geometry" />
        </mxCell>
        <mxCell id="n3XYFXiZFiqLa2j20COd-65" value="Collision-based objects that restore plasma grenades when touched" style="rounded=0;whiteSpace=wrap;html=1;" vertex="1" parent="1">
          <mxGeometry x="1180" y="720" width="130" height="60" as="geometry" />
        </mxCell>
        <mxCell id="n3XYFXiZFiqLa2j20COd-94" value="" style="edgeStyle=orthogonalEdgeStyle;rounded=0;orthogonalLoop=1;jettySize=auto;html=1;" edge="1" parent="1" source="n3XYFXiZFiqLa2j20COd-89" target="n3XYFXiZFiqLa2j20COd-93">
          <mxGeometry relative="1" as="geometry" />
        </mxCell>
        <mxCell id="n3XYFXiZFiqLa2j20COd-89" value="Levels" style="rounded=0;whiteSpace=wrap;html=1;" vertex="1" parent="1">
          <mxGeometry x="1130" y="340" width="120" height="60" as="geometry" />
        </mxCell>
        <mxCell id="n3XYFXiZFiqLa2j20COd-96" value="" style="edgeStyle=orthogonalEdgeStyle;rounded=0;orthogonalLoop=1;jettySize=auto;html=1;" edge="1" parent="1" source="n3XYFXiZFiqLa2j20COd-91" target="n3XYFXiZFiqLa2j20COd-95">
          <mxGeometry relative="1" as="geometry" />
        </mxCell>
        <mxCell id="n3XYFXiZFiqLa2j20COd-91" value="Tiles" style="rounded=0;whiteSpace=wrap;html=1;" vertex="1" parent="1">
          <mxGeometry x="1130" y="430" width="120" height="60" as="geometry" />
        </mxCell>
        <mxCell id="n3XYFXiZFiqLa2j20COd-93" value="Custom levels can be created and saved from the level editor tool" style="rounded=0;whiteSpace=wrap;html=1;" vertex="1" parent="1">
          <mxGeometry x="1330" y="340" width="120" height="60" as="geometry" />
        </mxCell>
        <mxCell id="n3XYFXiZFiqLa2j20COd-95" value="Tiles/platforms will be spread throughout each level for players/enemies to stand on" style="rounded=0;whiteSpace=wrap;html=1;" vertex="1" parent="1">
          <mxGeometry x="1330" y="415" width="120" height="90" as="geometry" />
        </mxCell>
      </root>
    </mxGraphModel>
  </diagram>
</mxfile>
